<?xml version="1.0" standalone="no"?>
<!DOCTYPE svg PUBLIC "-//W3C//DTD SVG 20010904//EN"
 "http://www.w3.org/TR/2001/REC-SVG-20010904/DTD/svg10.dtd">
<svg version="1.0" xmlns="http://www.w3.org/2000/svg"
 width="700.000000pt" height="700.000000pt" viewBox="0 0 700.000000 700.000000"
 preserveAspectRatio="xMidYMid meet">
<metadata>
Created by potrace 1.14, written by Peter Selinger 2001-2017
</metadata>
<g transform="translate(0.000000,700.000000) scale(0.100000,-0.100000)"
fill="#000000" stroke="none">
<path d="M2255 6982 c-98 -47 -139 -144 -105 -248 21 -62 110 -124 179 -124
40 0 146 -68 217 -138 63 -63 143 -197 127 -213 -5 -4 -46 -13 -93 -19 -126
-16 -144 -19 -270 -40 -157 -27 -158 -27 -305 -61 -162 -37 -141 -32 -265 -68
-909 -261 -1467 -728 -1536 -1286 -10 -81 -10 -219 -1 -335 5 -52 10 -113 12
-135 3 -43 14 -134 20 -175 35 -226 44 -270 90 -480 8 -39 67 -252 85 -310 11
-36 20 -69 20 -75 0 -5 -22 -32 -48 -60 -165 -172 -296 -402 -346 -605 -30
-124 -34 -176 -30 -315 3 -77 4 -160 3 -185 -5 -88 -4 -276 3 -325 15 -121 73
-290 141 -409 42 -74 107 -174 129 -197 7 -8 31 -36 53 -64 202 -251 615 -536
1035 -713 260 -109 662 -234 890 -276 14 -2 72 -14 130 -25 58 -11 125 -23
150 -26 25 -4 52 -9 60 -10 22 -4 109 -15 150 -20 32 -3 73 -8 181 -20 227
-26 1031 -26 1129 0 8 2 48 6 88 10 41 3 89 8 108 10 209 30 301 45 429 70
172 35 164 33 185 40 10 3 27 7 37 9 135 27 440 124 651 208 137 54 394 181
514 254 449 272 748 604 867 960 46 137 60 239 55 394 -5 173 -5 153 0 310 5
158 -9 261 -54 399 -66 199 -184 387 -352 559 l-61 62 32 103 c100 315 180
658 216 927 3 25 8 56 10 70 28 180 25 323 -9 479 -11 49 -50 157 -69 191 -21
37 -20 54 10 195 3 17 7 39 9 50 1 11 6 45 10 75 15 101 9 348 -10 440 -58
282 -225 494 -481 615 -88 41 -215 81 -297 95 -35 5 -74 12 -88 15 -39 8 -187
18 -275 18 -85 1 -298 -11 -318 -18 -7 -2 -37 -6 -67 -10 -92 -10 -295 -54
-418 -92 -194 -58 -326 -115 -429 -184 -44 -29 -40 -29 -163 -14 -19 2 -41 4
-47 4 -7 1 -22 20 -34 42 -44 87 -138 208 -233 300 -123 120 -283 199 -385
192 -92 -6 -166 -66 -189 -153 -11 -43 6 -119 35 -158 25 -34 90 -72 124 -72
27 0 94 -40 148 -89 18 -17 32 -31 30 -31 -2 0 -122 -2 -267 -5 -144 -2 -266
-6 -270 -9 -16 -10 -30 11 -51 84 -65 215 -221 409 -427 533 -139 84 -291 116
-369 79z m3445 -863 c219 -39 388 -170 462 -359 47 -120 52 -117 -74 -41 -127
77 -296 160 -445 220 -109 43 -349 124 -403 136 l-35 8 40 14 c102 35 320 46
455 22z"/>
</g>
</svg>
